<mxfile host="app.diagrams.net" agent="Mozilla/5.0 (Windows NT 10.0; Win64; x64) AppleWebKit/537.36 (KHTML, like Gecko) Chrome/131.0.0.0 Safari/537.36" version="24.9.1">
  <diagram name="Page-1" id="NfI9nmPGicpTStVMByjV">
    <mxGraphModel dx="1120" dy="521" grid="1" gridSize="10" guides="1" tooltips="1" connect="1" arrows="1" fold="1" page="1" pageScale="1" pageWidth="827" pageHeight="1169" math="0" shadow="0">
      <root>
        <mxCell id="0" />
        <mxCell id="1" parent="0" />
        <mxCell id="pCmEKQ0VhhOEIIQ8jLAD-1" value="EnКлиент" style="swimlane;childLayout=stackLayout;horizontal=1;startSize=50;horizontalStack=0;rounded=1;fontSize=14;fontStyle=0;strokeWidth=2;resizeParent=0;resizeLast=1;shadow=0;dashed=0;align=center;arcSize=4;whiteSpace=wrap;html=1;" vertex="1" parent="1">
          <mxGeometry x="110" y="60" width="160" height="100" as="geometry">
            <mxRectangle x="330" y="220" width="80" height="50" as="alternateBounds" />
          </mxGeometry>
        </mxCell>
        <mxCell id="pCmEKQ0VhhOEIIQ8jLAD-2" value="-Имя&lt;br&gt;-Контакты" style="align=left;strokeColor=none;fillColor=none;spacingLeft=4;fontSize=12;verticalAlign=top;resizable=0;rotatable=0;part=1;html=1;" vertex="1" parent="pCmEKQ0VhhOEIIQ8jLAD-1">
          <mxGeometry y="50" width="160" height="50" as="geometry" />
        </mxCell>
        <mxCell id="pCmEKQ0VhhOEIIQ8jLAD-4" value="Заказ" style="swimlane;childLayout=stackLayout;horizontal=1;startSize=50;horizontalStack=0;rounded=1;fontSize=14;fontStyle=0;strokeWidth=2;resizeParent=0;resizeLast=1;shadow=0;dashed=0;align=center;arcSize=4;whiteSpace=wrap;html=1;" vertex="1" parent="1">
          <mxGeometry x="350" y="50" width="160" height="120" as="geometry">
            <mxRectangle x="330" y="220" width="80" height="50" as="alternateBounds" />
          </mxGeometry>
        </mxCell>
        <mxCell id="pCmEKQ0VhhOEIIQ8jLAD-5" value="- Дата&lt;br&gt;- Сумма&lt;br&gt;- Примечания" style="align=left;strokeColor=none;fillColor=none;spacingLeft=4;fontSize=12;verticalAlign=top;resizable=0;rotatable=0;part=1;html=1;" vertex="1" parent="pCmEKQ0VhhOEIIQ8jLAD-4">
          <mxGeometry y="50" width="160" height="70" as="geometry" />
        </mxCell>
        <mxCell id="pCmEKQ0VhhOEIIQ8jLAD-21" value="Менеджер" style="swimlane;childLayout=stackLayout;horizontal=1;startSize=30;horizontalStack=0;rounded=1;fontSize=14;fontStyle=0;strokeWidth=2;resizeParent=0;resizeLast=1;shadow=0;dashed=0;align=center;arcSize=4;whiteSpace=wrap;html=1;" vertex="1" parent="1">
          <mxGeometry x="360" y="490" width="160" height="70" as="geometry">
            <mxRectangle x="330" y="220" width="80" height="50" as="alternateBounds" />
          </mxGeometry>
        </mxCell>
        <mxCell id="pCmEKQ0VhhOEIIQ8jLAD-22" value="-&amp;nbsp;Имя&lt;br&gt;-&amp;nbsp;Контакты" style="align=left;strokeColor=none;fillColor=none;spacingLeft=4;fontSize=12;verticalAlign=top;resizable=0;rotatable=0;part=1;html=1;" vertex="1" parent="pCmEKQ0VhhOEIIQ8jLAD-21">
          <mxGeometry y="30" width="160" height="40" as="geometry" />
        </mxCell>
        <mxCell id="pCmEKQ0VhhOEIIQ8jLAD-38" style="edgeStyle=orthogonalEdgeStyle;rounded=0;orthogonalLoop=1;jettySize=auto;html=1;exitX=0;exitY=0.5;exitDx=0;exitDy=0;entryX=1;entryY=0.5;entryDx=0;entryDy=0;" edge="1" parent="1" source="pCmEKQ0VhhOEIIQ8jLAD-23" target="pCmEKQ0VhhOEIIQ8jLAD-28">
          <mxGeometry relative="1" as="geometry" />
        </mxCell>
        <mxCell id="pCmEKQ0VhhOEIIQ8jLAD-23" value="Фермер" style="swimlane;childLayout=stackLayout;horizontal=1;startSize=30;horizontalStack=0;rounded=1;fontSize=14;fontStyle=0;strokeWidth=2;resizeParent=0;resizeLast=1;shadow=0;dashed=0;align=center;arcSize=4;whiteSpace=wrap;html=1;" vertex="1" parent="1">
          <mxGeometry x="360" y="330" width="160" height="80" as="geometry">
            <mxRectangle x="330" y="220" width="80" height="50" as="alternateBounds" />
          </mxGeometry>
        </mxCell>
        <mxCell id="pCmEKQ0VhhOEIIQ8jLAD-24" value="-&amp;nbsp;Имя&lt;br&gt;-&amp;nbsp;Продукты" style="align=left;strokeColor=none;fillColor=none;spacingLeft=4;fontSize=12;verticalAlign=top;resizable=0;rotatable=0;part=1;html=1;" vertex="1" parent="pCmEKQ0VhhOEIIQ8jLAD-23">
          <mxGeometry y="30" width="160" height="50" as="geometry" />
        </mxCell>
        <mxCell id="pCmEKQ0VhhOEIIQ8jLAD-25" value="Водитель" style="swimlane;childLayout=stackLayout;horizontal=1;startSize=30;horizontalStack=0;rounded=1;fontSize=14;fontStyle=0;strokeWidth=2;resizeParent=0;resizeLast=1;shadow=0;dashed=0;align=center;arcSize=4;whiteSpace=wrap;html=1;" vertex="1" parent="1">
          <mxGeometry x="360" y="630" width="160" height="70" as="geometry">
            <mxRectangle x="330" y="220" width="80" height="50" as="alternateBounds" />
          </mxGeometry>
        </mxCell>
        <mxCell id="pCmEKQ0VhhOEIIQ8jLAD-26" value="-&amp;nbsp;Имя&lt;br&gt;-&amp;nbsp;Машина" style="align=left;strokeColor=none;fillColor=none;spacingLeft=4;fontSize=12;verticalAlign=top;resizable=0;rotatable=0;part=1;html=1;" vertex="1" parent="pCmEKQ0VhhOEIIQ8jLAD-25">
          <mxGeometry y="30" width="160" height="40" as="geometry" />
        </mxCell>
        <mxCell id="pCmEKQ0VhhOEIIQ8jLAD-36" style="edgeStyle=orthogonalEdgeStyle;rounded=0;orthogonalLoop=1;jettySize=auto;html=1;exitX=0.5;exitY=1;exitDx=0;exitDy=0;entryX=0.5;entryY=0;entryDx=0;entryDy=0;" edge="1" parent="1" source="pCmEKQ0VhhOEIIQ8jLAD-27" target="pCmEKQ0VhhOEIIQ8jLAD-23">
          <mxGeometry relative="1" as="geometry" />
        </mxCell>
        <mxCell id="pCmEKQ0VhhOEIIQ8jLAD-27" value="Разделка мяса" style="whiteSpace=wrap;html=1;align=center;" vertex="1" parent="1">
          <mxGeometry x="360" y="240" width="140" height="40" as="geometry" />
        </mxCell>
        <mxCell id="pCmEKQ0VhhOEIIQ8jLAD-28" value="Уведомление о доставке" style="whiteSpace=wrap;html=1;align=center;" vertex="1" parent="1">
          <mxGeometry x="120" y="340" width="140" height="40" as="geometry" />
        </mxCell>
        <mxCell id="pCmEKQ0VhhOEIIQ8jLAD-37" style="edgeStyle=orthogonalEdgeStyle;rounded=0;orthogonalLoop=1;jettySize=auto;html=1;exitX=0.5;exitY=1;exitDx=0;exitDy=0;" edge="1" parent="1" source="pCmEKQ0VhhOEIIQ8jLAD-29" target="pCmEKQ0VhhOEIIQ8jLAD-28">
          <mxGeometry relative="1" as="geometry" />
        </mxCell>
        <mxCell id="pCmEKQ0VhhOEIIQ8jLAD-29" value="Обсуждение рецептов" style="whiteSpace=wrap;html=1;align=center;" vertex="1" parent="1">
          <mxGeometry x="120" y="240" width="140" height="40" as="geometry" />
        </mxCell>
        <mxCell id="pCmEKQ0VhhOEIIQ8jLAD-30" value="" style="endArrow=classic;startArrow=classic;html=1;rounded=0;entryX=0.988;entryY=0.14;entryDx=0;entryDy=0;exitX=0;exitY=0.25;exitDx=0;exitDy=0;entryPerimeter=0;" edge="1" parent="1" source="pCmEKQ0VhhOEIIQ8jLAD-5" target="pCmEKQ0VhhOEIIQ8jLAD-2">
          <mxGeometry width="50" height="50" relative="1" as="geometry">
            <mxPoint x="330" y="123" as="sourcePoint" />
            <mxPoint x="370" y="210" as="targetPoint" />
          </mxGeometry>
        </mxCell>
        <mxCell id="pCmEKQ0VhhOEIIQ8jLAD-31" style="edgeStyle=orthogonalEdgeStyle;rounded=0;orthogonalLoop=1;jettySize=auto;html=1;exitX=0.5;exitY=1;exitDx=0;exitDy=0;entryX=0.5;entryY=0;entryDx=0;entryDy=0;" edge="1" parent="1" source="pCmEKQ0VhhOEIIQ8jLAD-5" target="pCmEKQ0VhhOEIIQ8jLAD-27">
          <mxGeometry relative="1" as="geometry" />
        </mxCell>
        <mxCell id="pCmEKQ0VhhOEIIQ8jLAD-32" style="edgeStyle=orthogonalEdgeStyle;rounded=0;orthogonalLoop=1;jettySize=auto;html=1;exitX=0.5;exitY=1;exitDx=0;exitDy=0;entryX=0.5;entryY=0;entryDx=0;entryDy=0;" edge="1" parent="1" source="pCmEKQ0VhhOEIIQ8jLAD-2" target="pCmEKQ0VhhOEIIQ8jLAD-29">
          <mxGeometry relative="1" as="geometry" />
        </mxCell>
        <mxCell id="pCmEKQ0VhhOEIIQ8jLAD-35" value="" style="endArrow=classic;startArrow=classic;html=1;rounded=0;exitX=1;exitY=0.5;exitDx=0;exitDy=0;entryX=0;entryY=0.5;entryDx=0;entryDy=0;" edge="1" parent="1" source="pCmEKQ0VhhOEIIQ8jLAD-29" target="pCmEKQ0VhhOEIIQ8jLAD-27">
          <mxGeometry width="50" height="50" relative="1" as="geometry">
            <mxPoint x="320" y="500" as="sourcePoint" />
            <mxPoint x="370" y="450" as="targetPoint" />
          </mxGeometry>
        </mxCell>
        <mxCell id="pCmEKQ0VhhOEIIQ8jLAD-39" style="edgeStyle=orthogonalEdgeStyle;rounded=0;orthogonalLoop=1;jettySize=auto;html=1;exitX=0.5;exitY=1;exitDx=0;exitDy=0;" edge="1" parent="1" source="pCmEKQ0VhhOEIIQ8jLAD-24" target="pCmEKQ0VhhOEIIQ8jLAD-21">
          <mxGeometry relative="1" as="geometry" />
        </mxCell>
        <mxCell id="pCmEKQ0VhhOEIIQ8jLAD-40" style="edgeStyle=orthogonalEdgeStyle;rounded=0;orthogonalLoop=1;jettySize=auto;html=1;exitX=0.5;exitY=1;exitDx=0;exitDy=0;entryX=0.5;entryY=0;entryDx=0;entryDy=0;" edge="1" parent="1" source="pCmEKQ0VhhOEIIQ8jLAD-22" target="pCmEKQ0VhhOEIIQ8jLAD-25">
          <mxGeometry relative="1" as="geometry" />
        </mxCell>
      </root>
    </mxGraphModel>
  </diagram>
</mxfile>
